<?xml version="1.0" encoding="utf-8"?>
<!-- Generator: Adobe Illustrator 23.1.1, SVG Export Plug-In . SVG Version: 6.00 Build 0)  -->
<svg version="1.1" xmlns="http://www.w3.org/2000/svg" xmlns:xlink="http://www.w3.org/1999/xlink" x="0px" y="0px"
	 viewBox="0 0 468 120" style="enable-background:new 0 0 468 120;" xml:space="preserve">
<style type="text/css">
	.st0{fill:#E7E7E8;}
	.st1{fill:url(#SVGID_1_);}
	.st2{fill:none;}
	.st3{fill:#F08008;}
	.st4{font-family:'ITCAvantGardePro-Md';}
	.st5{font-size:8px;}
	.st6{fill:#FFFFFF;}
	.st7{font-family:'ITCAvantGardePro-Bold';}
	.st8{font-size:20px;}
	.st9{fill:#2A2F36;}
	.st10{fill:#424C5A;}
	.st11{fill:#939598;}
	.st12{fill:#D1D3D4;}
	.st13{fill:#BCBDBF;}
	.st14{fill:#F1F2F2;}
	.st15{opacity:3.000000e-02;fill:#FFFFFF;}
	.st16{fill:#C4E5EE;}
	.st17{fill:#77C9DB;}
	.st18{fill:#017B94;}
	.st19{fill:#005999;}
	.st20{fill:#4793D0;}
	.st21{fill:#BCC1C1;}
	.st22{fill:#CD5816;}
	.st23{fill:#B63618;}
	.st24{fill:#D4D4D5;}
	.st25{fill:#959696;}
	.st26{fill:#E9E9E9;}
</style>
<g id="Calque_3">
	<rect class="st0" width="468" height="120"/>
</g>
<g id="Calque_2">
	<linearGradient id="SVGID_1_" gradientUnits="userSpaceOnUse" x1="-30.9123" y1="28.4235" x2="559.0527" y2="28.4235">
		<stop  offset="0" style="stop-color:#CBE8F0"/>
		<stop  offset="1" style="stop-color:#2C4C9C"/>
	</linearGradient>
	<path class="st1" d="M-30.9,11.5c0,0,61.4,112.5,291.2,61.3c226.7-50.4,246.1-16.7,279.9,30.2S552,14.9,552,14.9l-84.5-54.2
		L310.5-56.1l-115.6,2.8L97-48.8L-30.9,11.5z"/>
</g>
<g id="Calque_1">
	<rect x="255.9" y="86.1" class="st2" width="147.1" height="28.9"/>
	<text transform="matrix(1 0 0 1 255.9296 91.9897)"><tspan x="0" y="0" class="st3 st4 st5">Un problème avec votre ordinateur ? </tspan><tspan x="0" y="9.6" class="st3 st4 st5">Rémy est là à votre service</tspan></text>
	<text transform="matrix(1 0 0 1 255.9299 43.6341)" class="st6 st7 st8">Ré-Partout</text>
	<g>
		<g>
			<g>
				<path id="XMLID_117_" class="st9" d="M145.6,91L66,91c-0.6,0-1.1-0.5-1-1.1l0-51c0-1.8,1.4-3.2,3.2-3.2l75.2,0.1
					c1.8,0,3.2,1.4,3.2,3.2l0,51C146.6,90.6,146.1,91,145.6,91"/>
				<polyline id="XMLID_118_" class="st10" points="143.5,88.2 68.1,88.1 68.1,38.6 143.6,38.7 143.5,88.2 				"/>
				<path id="XMLID_248_" class="st11" d="M163.7,109l-115.8-0.1c-1.4,0-2.5-1.1-2.5-2.5l0-0.1l120.8,0.1l0,0.1
					C166.2,107.9,165.1,109,163.7,109z"/>
				<path id="XMLID_249_" class="st12" d="M163.5,107.1L48.2,107c-2.1,0-3.3-0.4-2.6-0.9l18.3-14.3c0.7-0.5,2.3-0.9,3.7-0.9
					l76.7,0.1c1.4,0,3,0.4,3.7,0.9l18.1,14.4C166.7,106.7,165.5,107.1,163.5,107.1z"/>
				<polygon id="XMLID_250_" class="st13" points="128,106 83.7,105.9 86.7,100.2 125.1,100.2 				"/>
				<path id="XMLID_251_" class="st11" d="M72.6,92.9l-3.5,0c-0.2,0-0.3-0.1-0.2-0.1l1.4-1.2c0.1-0.1,0.3-0.1,0.5-0.1l3.4,0
					c0.2,0,0.3,0.1,0.2,0.1l-1.2,1.2C73,92.8,72.8,92.9,72.6,92.9z"/>
				<path id="XMLID_252_" class="st11" d="M77.6,92.9l-3.5,0c-0.2,0-0.3-0.1-0.3-0.1l1.2-1.2c0.1-0.1,0.3-0.1,0.5-0.1l3.4,0
					c0.2,0,0.3,0.1,0.3,0.1l-1,1.2C78,92.8,77.8,92.9,77.6,92.9z"/>
				<path id="XMLID_253_" class="st11" d="M82.6,92.9l-3.5,0c-0.2,0-0.3-0.1-0.3-0.1l1-1.2c0.1-0.1,0.3-0.1,0.5-0.1l3.4,0
					c0.2,0,0.3,0.1,0.3,0.1l-0.8,1.2C83,92.8,82.8,92.9,82.6,92.9z"/>
				<path id="XMLID_254_" class="st11" d="M87.6,92.9l-3.5,0c-0.2,0-0.3-0.1-0.3-0.1l0.8-1.2c0-0.1,0.2-0.1,0.4-0.1l3.4,0
					c0.2,0,0.3,0.1,0.3,0.1l-0.7,1.2C88,92.8,87.8,92.9,87.6,92.9z"/>
				<path id="XMLID_255_" class="st11" d="M92.6,92.9l-3.5,0c-0.2,0-0.3-0.1-0.3-0.1l0.6-1.2c0-0.1,0.2-0.1,0.4-0.1l3.4,0
					c0.2,0,0.3,0.1,0.3,0.1L93,92.8C93,92.8,92.8,92.9,92.6,92.9z"/>
				<path id="XMLID_256_" class="st11" d="M97.7,92.9l-3.5,0c-0.2,0-0.4-0.1-0.3-0.1l0.5-1.2c0-0.1,0.2-0.1,0.4-0.1l3.4,0
					c0.2,0,0.3,0.1,0.3,0.1l-0.3,1.2C98,92.8,97.9,92.9,97.7,92.9z"/>
				<path id="XMLID_257_" class="st11" d="M102.7,92.9l-3.5,0c-0.2,0-0.4-0.1-0.3-0.1l0.3-1.2c0-0.1,0.2-0.1,0.4-0.1l3.4,0
					c0.2,0,0.4,0.1,0.3,0.1l-0.1,1.2C103,92.8,102.9,92.9,102.7,92.9z"/>
				<path id="XMLID_258_" class="st11" d="M107.7,92.9l-3.5,0c-0.2,0-0.4-0.1-0.4-0.1l0.1-1.2c0-0.1,0.2-0.1,0.4-0.1l3.4,0
					c0.2,0,0.4,0.1,0.4,0.1l0.1,1.2C108,92.8,107.9,92.9,107.7,92.9z"/>
				<path id="XMLID_259_" class="st11" d="M112.7,92.9l-3.5,0c-0.2,0-0.4-0.1-0.4-0.1l-0.1-1.2c0-0.1,0.2-0.1,0.4-0.1l3.4,0
					c0.2,0,0.4,0.1,0.4,0.1l0.2,1.2C113,92.8,112.9,92.9,112.7,92.9z"/>
				<path id="XMLID_260_" class="st11" d="M117.7,92.9l-3.5,0c-0.2,0-0.4-0.1-0.4-0.1l-0.3-1.2c0-0.1,0.1-0.1,0.3-0.1l3.4,0
					c0.2,0,0.4,0.1,0.4,0.1l0.4,1.2C118,92.8,117.9,92.9,117.7,92.9z"/>
				<path id="XMLID_261_" class="st11" d="M122.9,92.9l-3.5,0c-0.2,0-0.4-0.1-0.4-0.1l-0.5-1.2c0-0.1,0.1-0.1,0.3-0.1l3.4,0
					c0.2,0,0.4,0.1,0.4,0.1l0.6,1.2C123.3,92.8,123.1,92.9,122.9,92.9z"/>
				<path id="XMLID_262_" class="st11" d="M128,92.9l-3.5,0c-0.2,0-0.4-0.1-0.4-0.1l-0.6-1.2c0-0.1,0.1-0.1,0.3-0.1l3.4,0
					c0.2,0,0.4,0.1,0.4,0.1l0.8,1.2C128.3,92.9,128.2,92.9,128,92.9z"/>
				<path id="XMLID_263_" class="st11" d="M133,92.9l-3.5,0c-0.2,0-0.4-0.1-0.5-0.1l-0.8-1.2c0-0.1,0.1-0.1,0.3-0.1l3.4,0
					c0.2,0,0.4,0.1,0.5,0.1l1,1.2C133.3,92.9,133.2,92.9,133,92.9z"/>
				<path id="XMLID_264_" class="st11" d="M138,92.9l-3.5,0c-0.2,0-0.4-0.1-0.5-0.1l-1-1.2c-0.1-0.1,0.1-0.1,0.3-0.1l3.4,0
					c0.2,0,0.4,0.1,0.5,0.1l1.2,1.2C138.3,92.9,138.2,92.9,138,92.9z"/>
				<path id="XMLID_265_" class="st11" d="M143,92.9l-3.5,0c-0.2,0-0.4-0.1-0.5-0.1l-1.2-1.2c-0.1-0.1,0-0.1,0.2-0.1l3.4,0
					c0.2,0,0.4,0.1,0.5,0.1l1.3,1.2C143.3,92.9,143.2,92.9,143,92.9z"/>
				<path id="XMLID_266_" class="st11" d="M73.1,94.6l-5.9,0c-0.2,0-0.3-0.1-0.3-0.1l1.4-1.2c0.1-0.1,0.3-0.1,0.5-0.1l5.7,0
					c0.2,0,0.3,0.1,0.3,0.1l-1.1,1.2C73.5,94.5,73.3,94.6,73.1,94.6z"/>
				<path id="XMLID_267_" class="st11" d="M78.3,94.6l-3.7,0c-0.2,0-0.3-0.1-0.3-0.1l1.1-1.2c0.1-0.1,0.3-0.1,0.5-0.1l3.6,0
					c0.2,0,0.3,0.1,0.3,0.1l-0.9,1.2C78.7,94.5,78.5,94.6,78.3,94.6z"/>
				<path id="XMLID_268_" class="st11" d="M83.6,94.6l-3.7,0c-0.2,0-0.4-0.1-0.3-0.1l0.9-1.2c0.1-0.1,0.3-0.1,0.5-0.1l3.6,0
					c0.2,0,0.3,0.1,0.3,0.1L84,94.5C84,94.5,83.8,94.6,83.6,94.6z"/>
				<path id="XMLID_269_" class="st11" d="M88.8,94.6l-3.7,0c-0.2,0-0.4-0.1-0.3-0.1l0.7-1.2c0-0.1,0.2-0.1,0.5-0.1l3.6,0
					c0.2,0,0.4,0.1,0.3,0.1l-0.6,1.2C89.2,94.5,89,94.6,88.8,94.6z"/>
				<path id="XMLID_270_" class="st11" d="M94.1,94.6l-3.7,0c-0.2,0-0.4-0.1-0.3-0.1l0.6-1.2c0-0.1,0.2-0.1,0.4-0.1l3.6,0
					c0.2,0,0.4,0.1,0.3,0.1l-0.4,1.2C94.5,94.5,94.3,94.6,94.1,94.6z"/>
				<path id="XMLID_271_" class="st11" d="M99.4,94.6l-3.7,0c-0.2,0-0.4-0.1-0.4-0.1l0.4-1.2c0-0.1,0.2-0.1,0.4-0.1l3.6,0
					c0.2,0,0.4,0.1,0.4,0.1l-0.2,1.2C99.8,94.5,99.6,94.6,99.4,94.6z"/>
				<path id="XMLID_272_" class="st11" d="M104.6,94.6l-3.7,0c-0.2,0-0.4-0.1-0.4-0.1l0.2-1.2c0-0.1,0.2-0.1,0.4-0.1l3.6,0
					c0.2,0,0.4,0.1,0.4,0.1l0,1.2C105,94.5,104.8,94.6,104.6,94.6z"/>
				<path id="XMLID_273_" class="st11" d="M109.9,94.6l-3.7,0c-0.2,0-0.4-0.1-0.4-0.1l0-1.2c0-0.1,0.2-0.1,0.4-0.1l3.6,0
					c0.2,0,0.4,0.1,0.4,0.1l0.1,1.2C110.3,94.5,110.1,94.6,109.9,94.6z"/>
				<path id="XMLID_274_" class="st11" d="M115.1,94.6l-3.7,0c-0.2,0-0.4-0.1-0.4-0.1l-0.2-1.2c0-0.1,0.2-0.1,0.4-0.1l3.6,0
					c0.2,0,0.4,0.1,0.4,0.1l0.3,1.2C115.5,94.6,115.4,94.6,115.1,94.6z"/>
				<path id="XMLID_275_" class="st11" d="M120.7,94.6l-3.7,0c-0.2,0-0.4-0.1-0.4-0.1l-0.4-1.2c0-0.1,0.1-0.1,0.3-0.1l3.6,0
					c0.2,0,0.4,0.1,0.4,0.1l0.5,1.2C121,94.6,120.9,94.6,120.7,94.6z"/>
				<path id="XMLID_276_" class="st11" d="M125.9,94.6l-3.7,0c-0.2,0-0.4-0.1-0.5-0.1l-0.5-1.2c0-0.1,0.1-0.1,0.3-0.1l3.6,0
					c0.2,0,0.4,0.1,0.5,0.1l0.7,1.2C126.3,94.6,126.1,94.6,125.9,94.6z"/>
				<path id="XMLID_277_" class="st11" d="M131.2,94.6l-3.7,0c-0.2,0-0.4-0.1-0.5-0.1l-0.7-1.2c0-0.1,0.1-0.1,0.3-0.1l3.6,0
					c0.2,0,0.4,0.1,0.5,0.1l0.9,1.2C131.5,94.6,131.4,94.6,131.2,94.6z"/>
				<path id="XMLID_278_" class="st11" d="M136.4,94.6l-3.7,0c-0.2,0-0.4-0.1-0.5-0.1l-0.9-1.2c-0.1-0.1,0.1-0.1,0.3-0.1l3.6,0
					c0.2,0,0.4,0.1,0.5,0.1l1,1.2C136.8,94.6,136.6,94.6,136.4,94.6z"/>
				<path id="XMLID_279_" class="st11" d="M144.8,94.6l-6.8,0c-0.2,0-0.4-0.1-0.5-0.1l-1.1-1.2c-0.1-0.1,0.1-0.1,0.3-0.1l6.5,0
					c0.2,0,0.4,0.1,0.5,0.1l1.3,1.2C145.1,94.6,145,94.6,144.8,94.6z"/>
				<path id="XMLID_280_" class="st11" d="M68.3,99.8l-6.8,0c-0.2,0-0.4-0.1-0.3-0.1l1.4-1.2c0.1-0.1,0.3-0.1,0.6-0.1l6.5,0
					c0.2,0,0.4,0.1,0.3,0.1l-1.1,1.2C68.8,99.7,68.6,99.8,68.3,99.8z"/>
				<path id="XMLID_281_" class="st11" d="M74.3,99.8l-4.2,0c-0.2,0-0.4-0.1-0.3-0.1l1.1-1.2c0.1-0.1,0.3-0.1,0.6-0.1l4.1,0
					c0.2,0,0.4,0.1,0.3,0.1l-0.9,1.2C74.8,99.7,74.5,99.8,74.3,99.8z"/>
				<path id="XMLID_282_" class="st11" d="M80.3,99.8l-4.2,0c-0.2,0-0.4-0.1-0.4-0.1l0.9-1.2c0.1-0.1,0.3-0.1,0.5-0.1l4.1,0
					c0.2,0,0.4,0.1,0.4,0.1l-0.8,1.2C80.8,99.7,80.5,99.8,80.3,99.8z"/>
				<path id="XMLID_283_" class="st11" d="M86.3,99.8l-4.2,0c-0.2,0-0.4-0.1-0.4-0.1l0.7-1.2c0-0.1,0.3-0.1,0.5-0.1l4.1,0
					c0.2,0,0.4,0.1,0.4,0.1l-0.6,1.2C86.8,99.7,86.6,99.8,86.3,99.8z"/>
				<path id="XMLID_284_" class="st11" d="M119.9,99.8l-31.7,0c-0.2,0-0.4-0.1-0.4-0.1l0.6-1.2c0-0.1,0.3-0.1,0.5-0.1l30.6,0
					c0.2,0,0.5,0.1,0.5,0.1l0.4,1.2C120.3,99.7,120.2,99.8,119.9,99.8z"/>
				<path id="XMLID_285_" class="st11" d="M125.9,99.8l-4.2,0c-0.2,0-0.5-0.1-0.5-0.1l-0.4-1.2c0-0.1,0.1-0.1,0.4-0.1l4.1,0
					c0.2,0,0.5,0.1,0.5,0.1l0.6,1.2C126.4,99.7,126.2,99.8,125.9,99.8z"/>
				<path id="XMLID_286_" class="st11" d="M131.9,99.8l-4.2,0c-0.2,0-0.5-0.1-0.5-0.1l-0.6-1.2c0-0.1,0.1-0.1,0.4-0.1l4.1,0
					c0.2,0,0.5,0.1,0.5,0.1l0.8,1.2C132.4,99.8,132.2,99.8,131.9,99.8z"/>
				<path id="XMLID_287_" class="st11" d="M138,99.8l-4.2,0c-0.2,0-0.5-0.1-0.5-0.1l-0.8-1.2c0-0.1,0.1-0.1,0.3-0.1l4.1,0
					c0.2,0,0.5,0.1,0.5,0.1l1,1.2C138.4,99.8,138.2,99.8,138,99.8z"/>
				<path id="XMLID_288_" class="st11" d="M144,99.8l-4.2,0c-0.2,0-0.5-0.1-0.6-0.1l-1-1.2c-0.1-0.1,0.1-0.1,0.3-0.1l4.1,0
					c0.2,0,0.5,0.1,0.6,0.1l1.1,1.2C144.4,99.8,144.2,99.8,144,99.8z"/>
				<path id="XMLID_289_" class="st11" d="M150,99.8l-4.2,0c-0.2,0-0.5-0.1-0.6-0.1l-1.2-1.2c-0.1-0.1,0.1-0.1,0.3-0.1l4.1,0
					c0.2,0,0.5,0.1,0.6,0.1l1.3,1.2C150.4,99.8,150.3,99.8,150,99.8z"/>
				<path id="XMLID_290_" class="st11" d="M74.6,96.3l-9.3,0c-0.2,0-0.3-0.1-0.3-0.1l1.4-1.2c0.1-0.1,0.3-0.1,0.5-0.1l8.9,0
					c0.2,0,0.3,0.1,0.3,0.1l-1,1.2C75.1,96.2,74.8,96.3,74.6,96.3z"/>
				<path id="XMLID_291_" class="st11" d="M80.2,96.3l-3.9,0c-0.2,0-0.4-0.1-0.3-0.1l1-1.2c0.1-0.1,0.3-0.1,0.5-0.1l3.7,0
					c0.2,0,0.4,0.1,0.3,0.1l-0.8,1.2C80.6,96.2,80.4,96.3,80.2,96.3z"/>
				<path id="XMLID_292_" class="st11" d="M85.7,96.3l-3.9,0c-0.2,0-0.4-0.1-0.3-0.1l0.8-1.2c0-0.1,0.3-0.1,0.5-0.1l3.7,0
					c0.2,0,0.4,0.1,0.3,0.1l-0.7,1.2C86.1,96.2,85.9,96.3,85.7,96.3z"/>
				<path id="XMLID_293_" class="st11" d="M91.2,96.3l-3.9,0c-0.2,0-0.4-0.1-0.3-0.1l0.6-1.2c0-0.1,0.2-0.1,0.5-0.1l3.7,0
					c0.2,0,0.4,0.1,0.3,0.1l-0.5,1.2C91.6,96.2,91.4,96.3,91.2,96.3z"/>
				<path id="XMLID_294_" class="st11" d="M96.7,96.3l-3.9,0c-0.2,0-0.4-0.1-0.4-0.1l0.5-1.2c0-0.1,0.2-0.1,0.4-0.1l3.7,0
					c0.2,0,0.4,0.1,0.4,0.1l-0.3,1.2C97.1,96.2,97,96.3,96.7,96.3z"/>
				<path id="XMLID_295_" class="st11" d="M102.2,96.3l-3.9,0c-0.2,0-0.4-0.1-0.4-0.1l0.3-1.2c0-0.1,0.2-0.1,0.4-0.1l3.7,0
					c0.2,0,0.4,0.1,0.4,0.1l-0.1,1.2C102.7,96.3,102.5,96.3,102.2,96.3z"/>
				<path id="XMLID_296_" class="st11" d="M107.7,96.3l-3.9,0c-0.2,0-0.4-0.1-0.4-0.1l0.1-1.2c0-0.1,0.2-0.1,0.4-0.1l3.7,0
					c0.2,0,0.4,0.1,0.4,0.1l0.1,1.2C108.2,96.3,108,96.3,107.7,96.3z"/>
				<path id="XMLID_297_" class="st11" d="M113.2,96.3l-3.9,0c-0.2,0-0.4-0.1-0.4-0.1l-0.1-1.2c0-0.1,0.2-0.1,0.4-0.1l3.7,0
					c0.2,0,0.4,0.1,0.4,0.1l0.2,1.2C113.7,96.3,113.5,96.3,113.2,96.3z"/>
				<path id="XMLID_298_" class="st11" d="M118.8,96.3l-3.9,0c-0.2,0-0.4-0.1-0.4-0.1l-0.3-1.2c0-0.1,0.1-0.1,0.4-0.1l3.7,0
					c0.2,0,0.4,0.1,0.4,0.1l0.4,1.2C119.2,96.3,119,96.3,118.8,96.3z"/>
				<path id="XMLID_299_" class="st11" d="M124.3,96.3l-3.9,0c-0.2,0-0.4-0.1-0.5-0.1l-0.4-1.2c0-0.1,0.1-0.1,0.3-0.1l3.7,0
					c0.2,0,0.4,0.1,0.5,0.1l0.6,1.2C124.7,96.3,124.5,96.3,124.3,96.3z"/>
				<path id="XMLID_300_" class="st11" d="M129.8,96.3l-3.9,0c-0.2,0-0.4-0.1-0.5-0.1l-0.6-1.2c0-0.1,0.1-0.1,0.3-0.1l3.7,0
					c0.2,0,0.4,0.1,0.5,0.1l0.8,1.2C130.2,96.3,130,96.3,129.8,96.3z"/>
				<path id="XMLID_301_" class="st11" d="M135.3,96.3l-3.9,0c-0.2,0-0.5-0.1-0.5-0.1l-0.8-1.2c0-0.1,0.1-0.1,0.3-0.1l3.7,0
					c0.2,0,0.4,0.1,0.5,0.1l1,1.2C135.7,96.3,135.5,96.3,135.3,96.3z"/>
				<path id="XMLID_302_" class="st11" d="M140.8,96.3l-3.9,0c-0.2,0-0.5-0.1-0.5-0.1l-1-1.2c-0.1-0.1,0.1-0.1,0.3-0.1l3.7,0
					c0.2,0,0.5,0.1,0.5,0.1l1.1,1.2C141.2,96.3,141,96.3,140.8,96.3z"/>
				<path id="XMLID_303_" class="st11" d="M146.3,96.3l-3.9,0c-0.2,0-0.5-0.1-0.5-0.1l-1.2-1.2c-0.1-0.1,0.1-0.1,0.3-0.1l3.7,0
					c0.2,0,0.5,0.1,0.5,0.1l1.3,1.2C146.7,96.3,146.6,96.3,146.3,96.3z"/>
				<path id="XMLID_304_" class="st11" d="M76.5,98l-13.1,0c-0.2,0-0.4-0.1-0.3-0.1l1.4-1.2c0.1-0.1,0.3-0.1,0.6-0.1l12.6,0
					c0.2,0,0.4,0.1,0.3,0.1L77,97.9C77,98,76.7,98,76.5,98z"/>
				<path id="XMLID_305_" class="st11" d="M82.3,98l-4.1,0c-0.2,0-0.4-0.1-0.3-0.1l0.9-1.2c0.1-0.1,0.3-0.1,0.5-0.1l3.9,0
					c0.2,0,0.4,0.1,0.3,0.1l-0.7,1.2C82.7,98,82.5,98,82.3,98z"/>
				<path id="XMLID_306_" class="st11" d="M88,98L84,98c-0.2,0-0.4-0.1-0.4-0.1l0.7-1.2c0-0.1,0.3-0.1,0.5-0.1l3.9,0
					c0.2,0,0.4,0.1,0.4,0.1l-0.6,1.2C88.5,98,88.3,98,88,98z"/>
				<path id="XMLID_307_" class="st11" d="M93.8,98l-4.1,0c-0.2,0-0.4-0.1-0.4-0.1l0.5-1.2c0-0.1,0.2-0.1,0.5-0.1l3.9,0
					c0.2,0,0.4,0.1,0.4,0.1l-0.4,1.2C94.3,98,94,98,93.8,98z"/>
				<path id="XMLID_308_" class="st11" d="M99.6,98.1l-4.1,0c-0.2,0-0.4-0.1-0.4-0.1l0.4-1.2c0-0.1,0.2-0.1,0.5-0.1l3.9,0
					c0.2,0,0.4,0.1,0.4,0.1l-0.2,1.2C100,98,99.8,98.1,99.6,98.1z"/>
				<path id="XMLID_309_" class="st11" d="M105.3,98.1l-4.1,0c-0.2,0-0.4-0.1-0.4-0.1l0.2-1.2c0-0.1,0.2-0.1,0.4-0.1l3.9,0
					c0.2,0,0.4,0.1,0.4,0.1l0,1.2C105.8,98,105.6,98.1,105.3,98.1z"/>
				<path id="XMLID_310_" class="st11" d="M111.1,98.1l-4.1,0c-0.2,0-0.4-0.1-0.4-0.1l0-1.2c0-0.1,0.2-0.1,0.4-0.1l3.9,0
					c0.2,0,0.4,0.1,0.4,0.1l0.2,1.2C111.5,98,111.3,98.1,111.1,98.1z"/>
				<path id="XMLID_311_" class="st11" d="M116.9,98.1l-4.1,0c-0.2,0-0.4-0.1-0.5-0.1l-0.2-1.2c0-0.1,0.2-0.1,0.4-0.1l3.9,0
					c0.2,0,0.4,0.1,0.5,0.1l0.3,1.2C117.3,98,117.1,98.1,116.9,98.1z"/>
				<path id="XMLID_312_" class="st11" d="M122.6,98.1l-4.1,0c-0.2,0-0.5-0.1-0.5-0.1l-0.4-1.2c0-0.1,0.1-0.1,0.4-0.1l3.9,0
					c0.2,0,0.4,0.1,0.5,0.1l0.5,1.2C123,98,122.9,98.1,122.6,98.1z"/>
				<path id="XMLID_313_" class="st11" d="M128.4,98.1l-4.1,0c-0.2,0-0.5-0.1-0.5-0.1l-0.5-1.2c0-0.1,0.1-0.1,0.4-0.1l3.9,0
					c0.2,0,0.4,0.1,0.5,0.1l0.7,1.2C128.8,98,128.6,98.1,128.4,98.1z"/>
				<path id="XMLID_314_" class="st11" d="M134.1,98.1l-4.1,0c-0.2,0-0.5-0.1-0.5-0.1l-0.7-1.2c0-0.1,0.1-0.1,0.3-0.1l3.9,0
					c0.2,0,0.5,0.1,0.5,0.1l0.9,1.2C134.5,98,134.4,98.1,134.1,98.1z"/>
				<path id="XMLID_315_" class="st11" d="M139.9,98.1l-4.1,0c-0.2,0-0.5-0.1-0.5-0.1l-0.9-1.2c-0.1-0.1,0.1-0.1,0.3-0.1l3.9,0
					c0.2,0,0.5,0.1,0.5,0.1l1.1,1.2C140.3,98,140.2,98.1,139.9,98.1z"/>
				<path id="XMLID_316_" class="st11" d="M148.2,98.1l-6.5,0c-0.2,0-0.5-0.1-0.5-0.1l-1.1-1.2c-0.1-0.1,0.1-0.1,0.3-0.1l6.3,0
					c0.2,0,0.5,0.1,0.6,0.1l1.3,1.2C148.5,98,148.4,98.1,148.2,98.1z"/>
				<path id="XMLID_317_" class="st14" d="M166.1,106.2c-0.3,0.3-1.3,0.5-2.7,0.5l-115.3-0.1c-1.4,0-2.4-0.2-2.7-0.5
					c-0.5,0.5,0.7,0.9,2.7,0.9l115.3,0.1C165.4,107.1,166.6,106.7,166.1,106.2z"/>
				<path class="st15" d="M146.7,39c0-1.8-1.4-3.2-3.2-3.2l-75.2-0.1c-0.6,0-1.2,0.2-1.8,0.5l80.1,51.2L146.7,39z"/>
			</g>
			<g>
				<path class="st16" d="M97.2,72.4c-1.9,0-3.4-1.5-3.4-3.4s1.5-3.4,3.4-3.4s3.4,1.5,3.4,3.4S99.1,72.4,97.2,72.4z M97.2,65.8
					c-1.8,0-3.2,1.5-3.2,3.2c0,1.8,1.5,3.2,3.2,3.2s3.2-1.5,3.2-3.2C100.4,67.2,99,65.8,97.2,65.8z"/>
				<path class="st16" d="M97.2,72.5c-1.9,0-3.5-1.6-3.5-3.5c0-1.9,1.6-3.5,3.5-3.5c1.9,0,3.5,1.6,3.5,3.5
					C100.7,70.9,99.1,72.5,97.2,72.5z M97.2,65.8c-1.8,0-3.2,1.4-3.2,3.2c0,1.8,1.4,3.2,3.2,3.2s3.2-1.4,3.2-3.2
					C100.4,67.3,98.9,65.8,97.2,65.8z"/>
				<path class="st16" d="M107.8,70.6v-3.3l-2.9-0.3c-0.2-0.8-0.5-1.5-0.9-2.1l1.8-2.2l-2.3-2.3l-2.2,1.8c-0.7-0.4-1.4-0.7-2.1-0.9
					l-0.3-2.9h-3.3l-0.3,2.9c-0.8,0.2-1.5,0.5-2.1,0.9l-2.2-1.8l-2.3,2.3l1.8,2.2c-0.4,0.7-0.7,1.4-0.9,2.1l-2.9,0.3v3.3l2.8,0.3
					c0.2,0.8,0.5,1.5,0.9,2.1l-1.8,2.2l2.3,2.3l2.2-1.8c0.7,0.4,1.4,0.7,2.2,0.9l0.3,2.8h3.3l0.3-2.8c0.8-0.2,1.5-0.5,2.2-0.9
					l2.2,1.8l2.3-2.3l-1.8-2.2c0.4-0.7,0.7-1.4,0.9-2.1L107.8,70.6z M97.2,73.1c-2.2,0-4-1.8-4-4c0-2.2,1.8-4,4-4c2.2,0,4,1.8,4,4
					C101.2,71.3,99.4,73.1,97.2,73.1z"/>
			</g>
			<g>
				<path class="st16" d="M150.4,24.6c-1.1,0-2-0.9-2-2c0-1.1,0.9-2,2-2c1.1,0,2,0.9,2,2C152.4,23.7,151.5,24.6,150.4,24.6z
					 M150.4,20.7c-1,0-1.9,0.9-1.9,1.9c0,1,0.9,1.9,1.9,1.9c1,0,1.9-0.9,1.9-1.9C152.3,21.5,151.4,20.7,150.4,20.7z"/>
				<path class="st16" d="M150.4,24.6c-1.1,0-2-0.9-2-2c0-1.1,0.9-2,2-2c1.1,0,2,0.9,2,2C152.4,23.7,151.5,24.6,150.4,24.6z
					 M150.4,20.7c-1,0-1.9,0.8-1.9,1.9c0,1,0.8,1.9,1.9,1.9s1.9-0.8,1.9-1.9C152.2,21.5,151.4,20.7,150.4,20.7z"/>
				<path class="st16" d="M156.6,23.5v-1.9l-1.7-0.2c-0.1-0.4-0.3-0.9-0.5-1.2l1-1.3l-1.3-1.3l-1.3,1.1c-0.4-0.2-0.8-0.4-1.2-0.5
					l-0.2-1.7h-1.9l-0.2,1.7c-0.4,0.1-0.9,0.3-1.2,0.5l-1.3-1.1l-1.3,1.3l1,1.3c-0.2,0.4-0.4,0.8-0.5,1.2l-1.7,0.2v1.9l1.7,0.2
					c0.1,0.4,0.3,0.9,0.5,1.3l-1,1.3l1.3,1.3l1.3-1c0.4,0.2,0.8,0.4,1.3,0.5l0.2,1.7h1.9l0.2-1.7c0.4-0.1,0.9-0.3,1.3-0.5l1.3,1
					l1.3-1.3l-1-1.3c0.2-0.4,0.4-0.8,0.5-1.3L156.6,23.5z M150.4,24.9c-1.3,0-2.4-1.1-2.4-2.4c0-1.3,1.1-2.4,2.4-2.4
					c1.3,0,2.4,1.1,2.4,2.4C152.7,23.9,151.7,24.9,150.4,24.9z"/>
			</g>
			<g>
				<path class="st17" d="M51,15.7c-1.1,0-2-0.9-2-2c0-1.1,0.9-2,2-2c1.1,0,2,0.9,2,2C53,14.8,52.1,15.7,51,15.7z M51,11.8
					c-1,0-1.9,0.9-1.9,1.9c0,1,0.9,1.9,1.9,1.9c1,0,1.9-0.9,1.9-1.9C52.9,12.7,52.1,11.8,51,11.8z"/>
				<path class="st17" d="M51,15.8c-1.1,0-2-0.9-2-2c0-1.1,0.9-2,2-2c1.1,0,2,0.9,2,2C53,14.8,52.1,15.8,51,15.8z M51,11.9
					c-1,0-1.9,0.8-1.9,1.9c0,1,0.8,1.9,1.9,1.9c1,0,1.9-0.8,1.9-1.9C52.9,12.7,52,11.9,51,11.9z"/>
				<path class="st17" d="M57.2,14.7v-1.9l-1.7-0.2c-0.1-0.4-0.3-0.9-0.5-1.2l1-1.3l-1.3-1.3l-1.3,1.1c-0.4-0.2-0.8-0.4-1.2-0.5
					L52,7.5h-1.9l-0.2,1.7c-0.4,0.1-0.9,0.3-1.2,0.5l-1.3-1.1L46,10l1,1.3c-0.2,0.4-0.4,0.8-0.5,1.2l-1.7,0.2v1.9l1.7,0.2
					c0.1,0.4,0.3,0.9,0.5,1.3l-1,1.3l1.3,1.3l1.3-1c0.4,0.2,0.8,0.4,1.3,0.5l0.2,1.7H52l0.2-1.7c0.4-0.1,0.9-0.3,1.3-0.5l1.3,1
					l1.3-1.3l-1-1.3c0.2-0.4,0.4-0.8,0.5-1.3L57.2,14.7z M51,16.1c-1.3,0-2.4-1.1-2.4-2.4c0-1.3,1.1-2.4,2.4-2.4s2.4,1.1,2.4,2.4
					C53.4,15,52.3,16.1,51,16.1z"/>
			</g>
			<g>
				<path class="st18" d="M183.4,81.6c-1.1,0-2-0.9-2-2c0-1.1,0.9-2,2-2c1.1,0,2,0.9,2,2C185.3,80.7,184.4,81.6,183.4,81.6z
					 M183.4,77.7c-1,0-1.9,0.9-1.9,1.9c0,1,0.9,1.9,1.9,1.9c1,0,1.9-0.9,1.9-1.9C185.3,78.6,184.4,77.7,183.4,77.7z"/>
				<path class="st18" d="M183.4,81.6c-1.1,0-2-0.9-2-2c0-1.1,0.9-2,2-2c1.1,0,2,0.9,2,2C185.4,80.7,184.5,81.6,183.4,81.6z
					 M183.4,77.8c-1,0-1.9,0.8-1.9,1.9c0,1,0.8,1.9,1.9,1.9c1,0,1.9-0.8,1.9-1.9C185.2,78.6,184.4,77.8,183.4,77.8z"/>
				<path class="st18" d="M189.5,80.6v-1.9l-1.7-0.2c-0.1-0.4-0.3-0.9-0.5-1.2l1-1.3l-1.3-1.3l-1.3,1.1c-0.4-0.2-0.8-0.4-1.2-0.5
					l-0.2-1.7h-1.9l-0.2,1.7c-0.4,0.1-0.9,0.3-1.2,0.5l-1.3-1.1l-1.3,1.3l1,1.3c-0.2,0.4-0.4,0.8-0.5,1.2l-1.7,0.2v1.9l1.7,0.2
					c0.1,0.4,0.3,0.9,0.5,1.3l-1,1.3l1.3,1.3l1.3-1c0.4,0.2,0.8,0.4,1.3,0.5l0.2,1.7h1.9l0.2-1.7c0.4-0.1,0.9-0.3,1.3-0.5l1.3,1
					l1.3-1.3l-1-1.3c0.2-0.4,0.4-0.8,0.5-1.3L189.5,80.6z M183.4,82c-1.3,0-2.4-1.1-2.4-2.4c0-1.3,1.1-2.4,2.4-2.4s2.4,1.1,2.4,2.4
					C185.7,80.9,184.7,82,183.4,82z"/>
			</g>
			<g>
				<path class="st17" d="M161.1,40c-1.8,0-3.3-1.5-3.3-3.3c0-1.8,1.5-3.3,3.3-3.3c1.8,0,3.3,1.5,3.3,3.3
					C164.4,38.5,162.9,40,161.1,40z M161.1,33.5c-1.8,0-3.2,1.4-3.2,3.2c0,1.8,1.4,3.2,3.2,3.2c1.8,0,3.2-1.4,3.2-3.2
					C164.2,34.9,162.8,33.5,161.1,33.5z"/>
				<path class="st17" d="M161.1,40c-1.9,0-3.4-1.5-3.4-3.4c0-1.9,1.5-3.4,3.4-3.4c1.9,0,3.4,1.5,3.4,3.4
					C164.5,38.5,162.9,40,161.1,40z M161.1,33.6c-1.7,0-3.1,1.4-3.1,3.1c0,1.7,1.4,3.1,3.1,3.1c1.7,0,3.1-1.4,3.1-3.1
					C164.2,34.9,162.8,33.6,161.1,33.6z"/>
				<path class="st17" d="M171.4,38.2V35l-2.8-0.3c-0.2-0.7-0.5-1.4-0.9-2.1l1.8-2.2l-2.3-2.3l-2.2,1.8c-0.6-0.4-1.3-0.7-2.1-0.9
					l-0.3-2.8h-3.2l-0.3,2.8c-0.7,0.2-1.4,0.5-2.1,0.9l-2.2-1.8l-2.3,2.3l1.8,2.2c-0.4,0.6-0.7,1.3-0.9,2.1l-2.8,0.3v3.2l2.8,0.3
					c0.2,0.7,0.5,1.5,0.9,2.1l-1.8,2.2l2.3,2.3l2.2-1.7c0.6,0.4,1.4,0.7,2.1,0.9l0.3,2.8h3.2l0.3-2.8c0.7-0.2,1.5-0.5,2.1-0.9
					l2.2,1.7l2.3-2.3l-1.8-2.2c0.4-0.6,0.7-1.4,0.9-2.1L171.4,38.2z M161.1,40.6c-2.2,0-3.9-1.8-3.9-3.9c0-2.2,1.8-3.9,3.9-3.9
					c2.2,0,3.9,1.8,3.9,3.9C165,38.8,163.2,40.6,161.1,40.6z"/>
			</g>
			<g>
				<path class="st19" d="M44.9,47.7c-1.8,0.4-3.4-1.2-3.1-3.1c0.2-1,1-1.9,2.1-2.1c1.8-0.4,3.4,1.2,3.1,3.1
					C46.8,46.6,45.9,47.5,44.9,47.7z M45,42.7c-1.9-0.5-3.5,1.2-3.1,3.1c0.2,0.9,0.9,1.6,1.8,1.8c1.9,0.5,3.5-1.2,3.1-3.1
					C46.6,43.6,45.9,42.9,45,42.7z"/>
				<path class="st19" d="M44.9,47.7c-1.9,0.4-3.5-1.3-3.2-3.2c0.2-1,1.1-1.9,2.1-2.1c1.9-0.4,3.5,1.3,3.2,3.2
					C46.8,46.7,45.9,47.5,44.9,47.7z M45,42.7c-1.8-0.4-3.4,1.2-3,3c0.2,0.9,0.9,1.6,1.8,1.8c1.8,0.4,3.4-1.2,3-3
					C46.5,43.6,45.8,42.9,45,42.7z"/>
				<path class="st19" d="M52.5,46.4v-2.5l-2.2-0.2c-0.1-0.6-0.4-1.1-0.7-1.7l1.4-1.7l-1.8-1.8l-1.7,1.4c-0.5-0.3-1.1-0.5-1.6-0.7
					l-0.2-2.2h-2.5l-0.2,2.2c-0.6,0.1-1.1,0.4-1.6,0.7l-1.7-1.4l-1.8,1.8l1.4,1.7c-0.3,0.5-0.5,1.1-0.7,1.7l-2.2,0.2v2.5l2.2,0.2
					c0.1,0.6,0.4,1.1,0.7,1.7L37.7,50l1.8,1.8l1.7-1.4c0.5,0.3,1.1,0.5,1.7,0.7l0.2,2.2h2.5l0.2-2.2c0.6-0.1,1.2-0.4,1.7-0.7
					l1.7,1.4L51,50l-1.4-1.7c0.3-0.5,0.5-1.1,0.7-1.7L52.5,46.4z M45,48.2c-2.2,0.4-4.1-1.5-3.7-3.7c0.2-1.2,1.2-2.2,2.4-2.4
					c2.2-0.4,4.1,1.5,3.7,3.7C47.2,46.9,46.2,47.9,45,48.2z"/>
			</g>
			<g>
				<path class="st17" d="M47.6,61.6c-1,0-1.9-0.8-1.9-1.9c0-1,0.8-1.9,1.9-1.9c1,0,1.9,0.8,1.9,1.9C49.5,60.7,48.7,61.6,47.6,61.6z
					 M47.6,57.9c-1,0-1.8,0.8-1.8,1.8c0,1,0.8,1.8,1.8,1.8c1,0,1.8-0.8,1.8-1.8C49.4,58.7,48.6,57.9,47.6,57.9z"/>
				<path class="st17" d="M47.6,61.6c-1.1,0-1.9-0.9-1.9-1.9c0-1.1,0.9-1.9,1.9-1.9c1.1,0,1.9,0.9,1.9,1.9
					C49.5,60.7,48.7,61.6,47.6,61.6z M47.6,58c-1,0-1.7,0.8-1.7,1.7c0,1,0.8,1.7,1.7,1.7c1,0,1.7-0.8,1.7-1.7
					C49.4,58.7,48.6,58,47.6,58z"/>
				<path class="st17" d="M53.4,60.6v-1.8l-1.6-0.2c-0.1-0.4-0.3-0.8-0.5-1.2l1-1.2l-1.3-1.3l-1.2,1c-0.4-0.2-0.8-0.4-1.2-0.5
					l-0.2-1.6h-1.8l-0.2,1.6c-0.4,0.1-0.8,0.3-1.2,0.5l-1.2-1l-1.3,1.3l1,1.2c-0.2,0.4-0.4,0.8-0.5,1.2l-1.6,0.2v1.8l1.6,0.2
					c0.1,0.4,0.3,0.8,0.5,1.2l-1,1.2l1.3,1.3l1.2-1c0.4,0.2,0.8,0.4,1.2,0.5l0.2,1.6h1.8l0.2-1.6c0.4-0.1,0.8-0.3,1.2-0.5l1.2,1
					l1.3-1.3l-1-1.2c0.2-0.4,0.4-0.8,0.5-1.2L53.4,60.6z M48.2,61.8c-1.6,0.4-3.1-1-2.7-2.7c0.2-0.8,0.8-1.4,1.6-1.6
					c1.6-0.4,3.1,1,2.7,2.7C49.6,61,49,61.7,48.2,61.8z"/>
			</g>
			<g>
				<path class="st19" d="M207.1,50.5c-1.4,0-2.6-1.2-2.6-2.6c0-1.4,1.2-2.6,2.6-2.6c1.4,0,2.6,1.2,2.6,2.6
					C209.7,49.3,208.5,50.5,207.1,50.5z M207.1,45.4c-1.4,0-2.5,1.1-2.5,2.5s1.1,2.5,2.5,2.5c1.4,0,2.5-1.1,2.5-2.5
					S208.4,45.4,207.1,45.4z"/>
				<path class="st19" d="M207.1,50.6c-1.5,0-2.7-1.2-2.7-2.7c0-1.5,1.2-2.7,2.7-2.7c1.5,0,2.7,1.2,2.7,2.7
					C209.7,49.4,208.5,50.6,207.1,50.6z M207.1,45.4c-1.4,0-2.5,1.1-2.5,2.5c0,1.4,1.1,2.5,2.5,2.5c1.4,0,2.5-1.1,2.5-2.5
					C209.5,46.5,208.4,45.4,207.1,45.4z"/>
				<path class="st19" d="M215.2,49.1v-2.5l-2.2-0.2c-0.1-0.6-0.4-1.1-0.7-1.7l1.4-1.7l-1.8-1.8l-1.7,1.4c-0.5-0.3-1.1-0.5-1.6-0.7
					l-0.2-2.2h-2.5l-0.2,2.2c-0.6,0.1-1.1,0.4-1.6,0.7l-1.7-1.4l-1.8,1.8l1.4,1.7c-0.3,0.5-0.5,1.1-0.7,1.7l-2.2,0.2v2.5l2.2,0.2
					c0.1,0.6,0.4,1.1,0.7,1.7l-1.4,1.7l1.8,1.8l1.7-1.4c0.5,0.3,1.1,0.5,1.7,0.7l0.2,2.2h2.5l0.2-2.2c0.6-0.1,1.2-0.4,1.7-0.7
					l1.7,1.4l1.8-1.8l-1.4-1.7c0.3-0.5,0.5-1.1,0.7-1.7L215.2,49.1z M207.1,51c-1.7,0-3.1-1.4-3.1-3.1s1.4-3.1,3.1-3.1
					c1.7,0,3.1,1.4,3.1,3.1S208.8,51,207.1,51z"/>
			</g>
			<g>
				<path class="st17" d="M210.3,64.3c-1,0-1.9-0.8-1.9-1.9c0-1,0.8-1.9,1.9-1.9c1,0,1.9,0.8,1.9,1.9
					C212.2,63.5,211.3,64.3,210.3,64.3z M210.3,60.7c-1,0-1.8,0.8-1.8,1.8c0,1,0.8,1.8,1.8,1.8c1,0,1.8-0.8,1.8-1.8
					C212.1,61.5,211.3,60.7,210.3,60.7z"/>
				<path class="st17" d="M210.3,64.4c-1.1,0-1.9-0.9-1.9-1.9c0-1.1,0.9-1.9,1.9-1.9c1.1,0,1.9,0.9,1.9,1.9
					C212.2,63.5,211.4,64.4,210.3,64.4z M210.3,60.7c-1,0-1.7,0.8-1.7,1.7c0,1,0.8,1.7,1.7,1.7c1,0,1.7-0.8,1.7-1.7
					C212.1,61.5,211.3,60.7,210.3,60.7z"/>
				<path class="st17" d="M216.1,63.4v-1.8l-1.6-0.2c-0.1-0.4-0.3-0.8-0.5-1.2l1-1.2l-1.3-1.3l-1.2,1c-0.4-0.2-0.8-0.4-1.2-0.5
					l-0.2-1.6h-1.8l-0.2,1.6c-0.4,0.1-0.8,0.3-1.2,0.5l-1.2-1l-1.3,1.3l1,1.2c-0.2,0.4-0.4,0.8-0.5,1.2l-1.6,0.2v1.8l1.6,0.2
					c0.1,0.4,0.3,0.8,0.5,1.2l-1,1.2l1.3,1.3l1.2-1c0.4,0.2,0.8,0.4,1.2,0.5l0.2,1.6h1.8l0.2-1.6c0.4-0.1,0.8-0.3,1.2-0.5l1.2,1
					l1.3-1.3l-1-1.2c0.2-0.4,0.4-0.8,0.5-1.2L216.1,63.4z M210.3,64.7c-1.2,0-2.2-1-2.2-2.2c0-1.2,1-2.2,2.2-2.2
					c1.2,0,2.2,1,2.2,2.2C212.5,63.7,211.5,64.7,210.3,64.7z"/>
			</g>
			<g>
				<path class="st20" d="M121.1,63.5c-2.7,0-4.9-2.2-4.9-4.9s2.2-4.9,4.9-4.9c2.7,0,4.9,2.2,4.9,4.9S123.8,63.5,121.1,63.5z
					 M121.1,53.9c-2.6,0-4.7,2.1-4.7,4.7c0,2.6,2.1,4.7,4.7,4.7c2.6,0,4.7-2.1,4.7-4.7C125.8,56,123.7,53.9,121.1,53.9z"/>
				<path class="st20" d="M121.1,63.6c-2.8,0-5-2.3-5-5c0-2.8,2.3-5,5-5c2.8,0,5,2.3,5,5C126.1,61.4,123.9,63.6,121.1,63.6z
					 M121.1,54c-2.5,0-4.6,2.1-4.6,4.6c0,2.5,2.1,4.6,4.6,4.6c2.5,0,4.6-2.1,4.6-4.6C125.7,56.1,123.6,54,121.1,54z"/>
				<path class="st20" d="M136.5,61v-4.7l-4.1-0.5c-0.3-1.1-0.7-2.1-1.3-3.1l2.6-3.3l-3.4-3.4l-3.3,2.6c-1-0.6-2-1-3.1-1.3l-0.5-4.1
					h-4.7l-0.5,4.1c-1.1,0.3-2.1,0.7-3.1,1.3l-3.3-2.6l-3.4,3.4l2.6,3.3c-0.6,1-1,2-1.3,3.1l-4.1,0.5V61l4.1,0.5
					c0.3,1.1,0.7,2.2,1.3,3.1l-2.6,3.2l3.4,3.4l3.2-2.6c1,0.6,2,1,3.1,1.3l0.5,4.1h4.7l0.5-4.1c1.1-0.3,2.2-0.7,3.1-1.3l3.2,2.6
					l3.4-3.4l-2.6-3.2c0.6-1,1-2,1.3-3.1L136.5,61z M121.1,64.4c-3.2,0-5.9-2.6-5.9-5.9c0-3.2,2.6-5.9,5.9-5.9
					c3.2,0,5.9,2.6,5.9,5.9C127,61.8,124.3,64.4,121.1,64.4z"/>
			</g>
			<g>
				<path class="st17" d="M90.6,44.9c-3.6,0-6.6-3-6.6-6.6c0-3.6,3-6.6,6.6-6.6c3.6,0,6.6,3,6.6,6.6C97.2,41.9,94.2,44.9,90.6,44.9z
					 M90.6,32c-3.5,0-6.3,2.8-6.3,6.3c0,3.5,2.8,6.3,6.3,6.3c3.5,0,6.3-2.8,6.3-6.3C96.9,34.8,94,32,90.6,32z"/>
				<path class="st17" d="M90.6,45c-3.7,0-6.7-3-6.7-6.7c0-3.7,3-6.7,6.7-6.7c3.7,0,6.7,3,6.7,6.7C97.3,42,94.3,45,90.6,45z
					 M90.6,32.1c-3.4,0-6.2,2.8-6.2,6.2c0,3.4,2.8,6.2,6.2,6.2c3.4,0,6.2-2.8,6.2-6.2C96.7,34.9,94,32.1,90.6,32.1z"/>
				<path class="st17" d="M111.1,41.4v-6.3l-5.5-0.6c-0.4-1.5-1-2.9-1.7-4.2l3.5-4.4l-4.5-4.5L98.5,25c-1.3-0.8-2.7-1.3-4.1-1.7
					l-0.6-5.6h-6.3l-0.6,5.6c-1.5,0.4-2.9,1-4.1,1.7l-4.4-3.5L73.8,26l3.5,4.4c-0.8,1.3-1.4,2.7-1.7,4.2L70,35.1v6.3l5.5,0.6
					c0.4,1.5,1,2.9,1.7,4.2l-3.5,4.3l4.5,4.5l4.3-3.5c1.3,0.8,2.7,1.4,4.2,1.7l0.6,5.5h6.3l0.6-5.5c1.5-0.4,2.9-1,4.2-1.7l4.3,3.5
					l4.5-4.5l-3.5-4.3c0.8-1.3,1.4-2.7,1.7-4.2L111.1,41.4z M90.6,46.1c-4.3,0-7.8-3.5-7.8-7.8s3.5-7.8,7.8-7.8
					c4.3,0,7.8,3.5,7.8,7.8S94.9,46.1,90.6,46.1z"/>
			</g>
		</g>
	</g>
	<g>
		<g>
			<g>
				
					<rect x="428.7" y="75.4" transform="matrix(0.5346 0.8451 -0.8451 0.5346 277.0157 -323.8547)" class="st21" width="7.7" height="28.4"/>
				
					<rect x="429.3" y="81" transform="matrix(0.5346 0.8451 -0.8451 0.5346 276.9717 -324.5802)" class="st6" width="7.7" height="16.4"/>
				<path class="st6" d="M459.5,77.3l-7.1,4.5l-4.5-7.1l7.1-4.5c-3-1.8-6.8-1.9-9.9,0.1c-4.4,2.8-5.7,8.6-2.9,13
					c2.8,4.4,8.6,5.7,13,2.9C458.3,84.2,459.8,80.7,459.5,77.3z"/>
				<path class="st6" d="M411.4,107.7l7.1-4.5l-4.5-7.1l-7.1,4.5c-0.4-3.4,1.2-6.9,4.3-8.9c4.4-2.8,10.2-1.5,13,2.9
					c2.8,4.4,1.5,10.2-2.9,13C418.2,109.6,414.3,109.5,411.4,107.7z"/>
			</g>
			<g>
				<path class="st22" d="M437.6,99.6l10.3,16.3c0.4,0.7,1.4,0.9,2.1,0.5l5-3.2c0.7-0.4,0.9-1.4,0.5-2.1l-10.3-16.3L437.6,99.6z"/>
				
					<rect x="438.1" y="96.9" transform="matrix(0.8451 -0.5346 0.5346 0.8451 15.5276 251.9696)" class="st23" width="9" height="4.6"/>
				<g>
					<path class="st23" d="M440.6,100.4c-0.3,0.2-0.4,0.6-0.2,0.9l8.5,13.4c0.2,0.3,0.6,0.4,0.9,0.2c0.3-0.2,0.4-0.6,0.2-0.9
						l-8.5-13.4C441.3,100.3,440.9,100.2,440.6,100.4z"/>
					<path class="st23" d="M442.7,99c-0.3,0.2-0.4,0.6-0.2,0.9l8.5,13.4c0.2,0.3,0.6,0.4,0.9,0.2c0.3-0.2,0.4-0.6,0.2-0.9l-8.5-13.4
						C443.4,98.9,443,98.9,442.7,99z"/>
					<path class="st23" d="M444.8,97.7c-0.3,0.2-0.4,0.6-0.2,0.9L453,112c0.2,0.3,0.6,0.4,0.9,0.2c0.3-0.2,0.4-0.6,0.2-0.9
						l-8.5-13.4C445.5,97.6,445.1,97.5,444.8,97.7z"/>
				</g>
				
					<rect x="431.7" y="69.8" transform="matrix(0.8451 -0.5346 0.5346 0.8451 22.0142 244.5748)" class="st24" width="2.7" height="29"/>
				
					<rect x="438.4" y="92.9" transform="matrix(0.8451 -0.5346 0.5346 0.8451 17.395 249.7913)" class="st25" width="2.7" height="4"/>
				<path class="st3" d="M444.1,92.9l-8,5c-0.8,0.5-1,1.6-0.5,2.4l0,0c0.5,0.8,1.6,1,2.4,0.5l8-5c0.8-0.5,1-1.6,0.5-2.4l0,0
					C446,92.6,444.9,92.4,444.1,92.9z"/>
				<polygon class="st25" points="422.1,70.3 425.1,68.4 426.4,71.3 424.2,72.7 				"/>
				<polygon class="st24" points="422.1,70.3 425.1,68.4 422.4,64.9 420.1,66.3 				"/>
			</g>
		</g>
	</g>
	<g>
		<g>
			<g>
				
					<rect x="5908.7" y="22.6" transform="matrix(0.7071 0.7071 -0.7071 0.7071 1751.7034 -4170.7812)" class="st26" width="3.5" height="13.1"/>
				
					<rect x="5908.9" y="25.1" transform="matrix(0.7071 0.7071 -0.7071 0.7071 1751.6017 -4171.0269)" class="st6" width="3.5" height="7.6"/>
				<path class="st6" d="M5921.3,20.8l-2.7,2.7l-2.7-2.7l2.7-2.7c-1.5-0.5-3.2-0.2-4.4,1c-1.7,1.7-1.7,4.4,0,6.1
					c1.7,1.7,4.4,1.7,6.1,0C5921.5,24.1,5921.8,22.3,5921.3,20.8z"/>
				<path class="st6" d="M5902.8,39.4l2.7-2.7l-2.7-2.7l-2.7,2.7c-0.5-1.5-0.2-3.2,1-4.4c1.7-1.7,4.4-1.7,6.1,0
					c1.7,1.7,1.7,4.4,0,6.1C5906,39.5,5904.3,39.9,5902.8,39.4z"/>
			</g>
			<g>
				<path class="st22" d="M5913.7,33.1l6.3,6.3c0.3,0.3,0.7,0.3,1,0l1.9-1.9c0.3-0.3,0.3-0.7,0-1l-6.3-6.3L5913.7,33.1z"/>
				
					<rect x="5913.8" y="31.3" transform="matrix(0.7071 -0.7071 0.7071 0.7071 1709.8479 4192.7036)" class="st23" width="4.1" height="2.1"/>
				<g>
					<path class="st23" d="M5915.1,33.1c-0.1,0.1-0.1,0.3,0,0.4l5.2,5.2c0.1,0.1,0.3,0.1,0.4,0s0.1-0.3,0-0.4l-5.2-5.2
						C5915.4,33,5915.2,33,5915.1,33.1z"/>
					<path class="st23" d="M5915.9,32.3c-0.1,0.1-0.1,0.3,0,0.4l5.2,5.2c0.1,0.1,0.3,0.1,0.4,0c0.1-0.1,0.1-0.3,0-0.4l-5.2-5.2
						C5916.2,32.2,5916.1,32.2,5915.9,32.3z"/>
					<path class="st23" d="M5916.7,31.5c-0.1,0.1-0.1,0.3,0,0.4l5.2,5.2c0.1,0.1,0.3,0.1,0.4,0c0.1-0.1,0.1-0.3,0-0.4l-5.2-5.2
						C5917.1,31.4,5916.9,31.4,5916.7,31.5z"/>
				</g>
				
					<rect x="5909.5" y="20" transform="matrix(0.7071 -0.7071 0.7071 0.7071 1712.1761 4186.9058)" class="st24" width="1.2" height="13.4"/>
				
					<rect x="5913.6" y="29.8" transform="matrix(0.7071 -0.7071 0.7071 0.7071 1710.4869 4190.9839)" class="st25" width="1.2" height="1.8"/>
				<path class="st3" d="M5916,29.4l-3.1,3.1c-0.3,0.3-0.3,0.8,0,1.1l0,0c0.3,0.3,0.8,0.3,1.1,0l3.1-3.1c0.3-0.3,0.3-0.8,0-1.1l0,0
					C5916.8,29.1,5916.3,29.1,5916,29.4z"/>
				<polygon class="st25" points="5903.8,21.5 5904.9,20.3 5905.8,21.5 5905,22.4 				"/>
				<polygon class="st24" points="5903.8,21.5 5904.9,20.3 5903.4,19 5902.5,19.9 				"/>
			</g>
		</g>
	</g>
	<g>
		<path class="st18" d="M240.2,30.7c-1.1,0-2-0.9-2-2c0-1.1,0.9-2,2-2c1.1,0,2,0.9,2,2C242.2,29.8,241.3,30.7,240.2,30.7z
			 M240.2,26.9c-1,0-1.9,0.9-1.9,1.9c0,1,0.9,1.9,1.9,1.9c1,0,1.9-0.9,1.9-1.9C242.1,27.7,241.2,26.9,240.2,26.9z"/>
		<path class="st18" d="M240.2,30.8c-1.1,0-2-0.9-2-2c0-1.1,0.9-2,2-2c1.1,0,2,0.9,2,2C242.2,29.9,241.3,30.8,240.2,30.8z
			 M240.2,26.9c-1,0-1.9,0.8-1.9,1.9c0,1,0.8,1.9,1.9,1.9c1,0,1.9-0.8,1.9-1.9C242,27.7,241.2,26.9,240.2,26.9z"/>
		<path class="st18" d="M246.4,29.7v-1.9l-1.7-0.2c-0.1-0.4-0.3-0.9-0.5-1.2l1-1.3l-1.3-1.3l-1.3,1.1c-0.4-0.2-0.8-0.4-1.2-0.5
			l-0.2-1.7h-1.9l-0.2,1.7c-0.4,0.1-0.9,0.3-1.2,0.5l-1.3-1.1l-1.3,1.3l1,1.3c-0.2,0.4-0.4,0.8-0.5,1.2l-1.7,0.2v1.9l1.7,0.2
			c0.1,0.4,0.3,0.9,0.5,1.3l-1,1.3l1.3,1.3l1.3-1c0.4,0.2,0.8,0.4,1.3,0.5l0.2,1.7h1.9l0.2-1.7c0.4-0.1,0.9-0.3,1.3-0.5l1.3,1
			l1.3-1.3l-1-1.3c0.2-0.4,0.4-0.8,0.5-1.3L246.4,29.7z M240.2,31.1c-1.3,0-2.4-1.1-2.4-2.4c0-1.3,1.1-2.4,2.4-2.4
			c1.3,0,2.4,1.1,2.4,2.4C242.5,30.1,241.5,31.1,240.2,31.1z"/>
	</g>
	<g>
		<path class="st18" d="M15,49c-1.1,0-2-0.9-2-2c0-1.1,0.9-2,2-2c1.1,0,2,0.9,2,2C17,48.1,16.1,49,15,49z M15,45.1
			c-1,0-1.9,0.9-1.9,1.9c0,1,0.9,1.9,1.9,1.9c1,0,1.9-0.9,1.9-1.9C16.9,46,16.1,45.1,15,45.1z"/>
		<path class="st18" d="M15,49c-1.1,0-2-0.9-2-2c0-1.1,0.9-2,2-2c1.1,0,2,0.9,2,2C17,48.1,16.1,49,15,49z M15,45.2
			c-1,0-1.9,0.8-1.9,1.9c0,1,0.8,1.9,1.9,1.9c1,0,1.9-0.8,1.9-1.9C16.9,46,16,45.2,15,45.2z"/>
		<path class="st18" d="M21.2,48V46l-1.7-0.2c-0.1-0.4-0.3-0.9-0.5-1.2l1-1.3L18.7,42L17.4,43c-0.4-0.2-0.8-0.4-1.2-0.5L16,40.8
			h-1.9l-0.2,1.7c-0.4,0.1-0.9,0.3-1.2,0.5L11.3,42L10,43.3l1,1.3c-0.2,0.4-0.4,0.8-0.5,1.2L8.8,46V48l1.7,0.2
			c0.1,0.4,0.3,0.9,0.5,1.3l-1,1.3l1.3,1.3l1.3-1c0.4,0.2,0.8,0.4,1.3,0.5l0.2,1.7H16l0.2-1.7c0.4-0.1,0.9-0.3,1.3-0.5l1.3,1
			l1.3-1.3l-1-1.3c0.2-0.4,0.4-0.8,0.5-1.3L21.2,48z M15,49.4c-1.3,0-2.4-1.1-2.4-2.4c0-1.3,1.1-2.4,2.4-2.4c1.3,0,2.4,1.1,2.4,2.4
			C17.4,48.3,16.3,49.4,15,49.4z"/>
	</g>
	<g>
		<path class="st20" d="M188,22.6c-2.7,0-4.9-2.2-4.9-4.9s2.2-4.9,4.9-4.9c2.7,0,4.9,2.2,4.9,4.9S190.7,22.6,188,22.6z M188,13
			c-2.6,0-4.7,2.1-4.7,4.7c0,2.6,2.1,4.7,4.7,4.7c2.6,0,4.7-2.1,4.7-4.7C192.7,15.1,190.6,13,188,13z"/>
		<path class="st20" d="M188,22.7c-2.8,0-5-2.3-5-5c0-2.8,2.3-5,5-5c2.8,0,5,2.3,5,5C193,20.5,190.7,22.7,188,22.7z M188,13.1
			c-2.5,0-4.6,2.1-4.6,4.6c0,2.5,2.1,4.6,4.6,4.6c2.5,0,4.6-2.1,4.6-4.6C192.6,15.2,190.5,13.1,188,13.1z"/>
		<path class="st20" d="M203.3,20.1v-4.7l-4.1-0.5c-0.3-1.1-0.7-2.1-1.3-3.1l2.6-3.3l-3.4-3.4l-3.3,2.6c-1-0.6-2-1-3.1-1.3l-0.5-4.1
			h-4.7l-0.5,4.1C184,6.8,183,7.2,182,7.8l-3.3-2.6l-3.4,3.4l2.6,3.3c-0.6,1-1,2-1.3,3.1l-4.1,0.5v4.7l4.1,0.5
			c0.3,1.1,0.7,2.2,1.3,3.1l-2.6,3.2l3.4,3.4l3.2-2.6c1,0.6,2,1,3.1,1.3l0.5,4.1h4.7l0.5-4.1c1.1-0.3,2.2-0.7,3.1-1.3l3.2,2.6
			l3.4-3.4l-2.6-3.2c0.6-1,1-2,1.3-3.1L203.3,20.1z M188,23.5c-3.2,0-5.9-2.6-5.9-5.9c0-3.2,2.6-5.9,5.9-5.9s5.9,2.6,5.9,5.9
			C193.8,20.9,191.2,23.5,188,23.5z"/>
	</g>
</g>
</svg>
